<svg width="24" height="24" viewBox="0 0 24 24" fill="none" xmlns="http://www.w3.org/2000/svg">
<path fill-rule="evenodd" clip-rule="evenodd" d="M17.2028 10.7962L18.9988 9.00019C19.544 8.45494 19.8167 8.18231 19.9624 7.88822C20.2397 7.32866 20.2397 6.67171 19.9624 6.11215C19.8167 5.81806 19.544 5.54544 18.9988 5.00019C18.4535 4.45494 18.1809 4.18231 17.8868 4.03658C17.3273 3.75929 16.6703 3.75929 16.1108 4.03658C15.8167 4.18231 15.544 4.45494 14.9988 5.00019L13.1801 6.81884C14.144 8.46944 15.5301 9.845 17.2028 10.7962ZM11.7257 8.2733L4.85517 15.1438C4.43011 15.5689 4.21758 15.7814 4.07785 16.0425C3.93811 16.3036 3.87917 16.5983 3.76128 17.1878L3.14588 20.2648C3.07936 20.5974 3.0461 20.7637 3.14071 20.8583C3.23532 20.9529 3.40162 20.9196 3.73423 20.8531L6.81121 20.2377C7.40066 20.1198 7.69539 20.0609 7.95649 19.9211C8.21758 19.7814 8.43012 19.5689 8.85518 19.1438L15.7446 12.2544C14.1229 11.2388 12.7512 9.87646 11.7257 8.2733Z" fill="#fff"/>
</svg>
