<svg width="24" height="24" viewBox="0 0 24 24" fill="none" xmlns="http://www.w3.org/2000/svg">
<path d="M3 12C3 7.02944 7.02944 3 12 3C16.9706 3 21 7.02944 21 12C21 16.9706 16.9706 21 12 21C7.02944 21 3 16.9706 3 12Z" fill="#7E869E" fill-opacity="0.25"/>
<circle cx="12" cy="10" r="4" fill="#222222"/>
<path fill-rule="evenodd" clip-rule="evenodd" d="M18.22 18.2462C18.2782 18.3426 18.2604 18.466 18.1786 18.5432C16.5665 20.0662 14.3919 21 11.9991 21C9.60636 21 7.43172 20.0663 5.81966 18.5433C5.73785 18.466 5.7201 18.3427 5.77826 18.2463C6.94246 16.318 9.29124 15 11.9991 15C14.707 15 17.0558 16.3179 18.22 18.2462Z" fill="#222222"/>
</svg>
